<!DOCTYPE svg PUBLIC "-//W3C//DTD SVG 20010904//EN" "http://www.w3.org/TR/2001/REC-SVG-20010904/DTD/svg10.dtd">
<svg version="1.0" xmlns="http://www.w3.org/2000/svg" width="122px" height="121px" viewBox="0 0 1220 1210" preserveAspectRatio="xMidYMid meet">
<g id="layer101" fill="#ffce00" stroke="none">
 <path d="M426 1048 c-130 -71 -233 -217 -258 -365 -39 -236 106 -473 335 -545 84 -26 210 -26 297 1 349 109 455 562 191 815 -45 42 -162 116 -185 116 -2 0 -6 -44 -8 -97 -2 -54 -8 -106 -12 -115 -6 -14 -3 -18 13 -18 37 0 111 -41 138 -76 14 -19 31 -51 39 -71 19 -54 18 -166 -3 -211 -9 -20 -19 -70 -23 -111 -8 -87 -22 -103 -75 -91 -19 4 -50 17 -69 28 -29 17 -43 19 -98 13 -34 -5 -90 -5 -123 -1 -49 6 -67 3 -97 -13 -21 -10 -55 -21 -77 -24 -49 -7 -61 11 -65 100 -1 34 -9 76 -18 92 -53 101 -18 260 73 327 14 11 43 25 65 33 53 18 55 49 2 53 -33 3 -43 -2 -81 -41 -46 -48 -97 -67 -122 -47 -22 19 -18 33 20 70 19 19 35 40 35 47 0 7 14 28 31 47 24 28 43 38 90 48 55 11 59 14 59 40 0 15 -3 28 -7 28 -5 0 -34 -15 -67 -32z"/>
 </g>

</svg>